<?xml version="1.0" encoding="UTF-8" standalone="no"?><!DOCTYPE svg PUBLIC "-//W3C//DTD SVG 1.1//EN" "http://www.w3.org/Graphics/SVG/1.1/DTD/svg11.dtd"><svg width="100%" height="100%" viewBox="0 0 401 132" version="1.1" xmlns="http://www.w3.org/2000/svg" xmlns:xlink="http://www.w3.org/1999/xlink" xml:space="preserve" xmlns:serif="http://www.serif.com/" style="fill-rule:evenodd;clip-rule:evenodd;stroke-linejoin:round;stroke-miterlimit:2;"><g id="Simple-Logo" serif:id="Simple Logo"><g><path d="M30.888,78.315c8.638,0 16.149,-2.275 21.031,-4.549l0,-34.446l-23.19,0l0,9.965l11.924,0l0,16.898c-2.348,0.867 -6.103,1.625 -9.858,1.625c-15.116,0 -18.59,-10.94 -18.59,-26.322l0,-3.357c0,-13.974 4.507,-25.672 19.622,-25.672c8.544,0 13.52,2.166 17.369,4.116l0,-10.615c-3.755,-2.275 -9.388,-4.333 -17.65,-4.333c-16.712,0 -31.546,9.315 -31.546,37.587l0,2.274c0,26.105 12.017,36.829 30.888,36.829Z" style="fill:#fdfdfd;fill-rule:nonzero;"/><path d="M89.943,78.423c16.43,0 24.316,-8.773 24.316,-27.729l0,-47.878l-10.327,0l0,47.444c0,13.649 -4.413,18.09 -13.52,18.09c-9.295,0 -14.083,-4.55 -14.083,-18.09l0,-47.444l-11.736,0l0,48.311c0,18.306 9.013,27.296 25.35,27.296Z" style="fill:#fdfdfd;fill-rule:nonzero;"/><path d="M129.093,77.124l40.746,0l0,-10.507l-29.198,0l0,-22.531l22.251,0l0,-10.399l-22.251,0l0,-20.364l28.635,0l0,-10.507l-40.183,0l0,74.308Z" style="fill:#fdfdfd;fill-rule:nonzero;"/><path d="M198.287,78.423c15.585,0 23.002,-8.773 23.002,-22.855c0,-13.215 -6.103,-18.089 -16.243,-21.447l-6.008,-2.167c-6.384,-2.058 -8.262,-4.549 -8.262,-10.398c0,-5.958 3.755,-9.208 10.515,-9.208c7.135,0 12.393,1.734 16.43,3.683l0,-10.398c-3.568,-2.167 -8.168,-4.008 -16.618,-4.008c-14.552,0 -21.593,8.557 -21.593,21.122c0,12.565 5.539,18.198 14.646,21.122l6.102,1.95c7.042,2.492 9.389,4.875 9.389,11.049c0,6.716 -3.662,10.832 -12.299,10.832c-7.042,0 -13.144,-1.95 -18.308,-4.55l0,10.507c4.413,2.708 10.797,4.766 19.247,4.766Z" style="fill:#fdfdfd;fill-rule:nonzero;"/><path d="M248.234,78.423c15.585,0 23.002,-8.773 23.002,-22.855c0,-13.215 -6.103,-18.089 -16.242,-21.447l-6.009,-2.167c-6.384,-2.058 -8.262,-4.549 -8.262,-10.398c0,-5.958 3.755,-9.208 10.515,-9.208c7.136,0 12.393,1.734 16.43,3.683l0,-10.398c-3.567,-2.167 -8.168,-4.008 -16.618,-4.008c-14.552,0 -21.593,8.557 -21.593,21.122c0,12.565 5.539,18.198 14.646,21.122l6.103,1.95c7.041,2.492 9.388,4.875 9.388,11.049c0,6.716 -3.661,10.832 -12.299,10.832c-7.041,0 -13.144,-1.95 -18.308,-4.55l0,10.507c4.413,2.708 10.797,4.766 19.247,4.766Z" style="fill:#fdfdfd;fill-rule:nonzero;"/><rect x="307.851" y="2.816" width="11.642" height="74.307" style="fill:#fdfdfd;fill-rule:nonzero;"/><path d="M348.41,77.124l11.548,0l0,-63.801l18.308,0l0,-10.507l-48.351,0l0,10.507l18.495,0l0,63.801Z" style="fill:#fdfdfd;fill-rule:nonzero;"/><path d="M389.438,55.568l9.389,0l1.314,-55.568l-12.205,0l1.502,55.568Zm-0.939,23.072l11.266,0l0,-12.673l-11.266,0l0,12.673Z" style="fill:#fdfdfd;fill-rule:nonzero;"/></g><path d="M354.264,112.045c-130.252,-35.38 -332.902,19.184 -332.902,19.184l-0.138,-0.062c0,0 151.448,-66.813 333.021,-30.599c1.85,-0.15 3.984,0.143 6.124,0.934c5.171,1.913 8.426,6.016 7.265,9.157c-1.162,3.141 -6.304,4.139 -11.475,2.226c-0.665,-0.246 -1.298,-0.528 -1.895,-0.84Z" style="fill:#fdfdfd;"/></g></svg>