<?xml version="1.0" encoding="UTF-8" standalone="no"?><!DOCTYPE svg PUBLIC "-//W3C//DTD SVG 1.1//EN" "http://www.w3.org/Graphics/SVG/1.1/DTD/svg11.dtd"><svg width="100%" height="100%" viewBox="0 0 401 132" version="1.1" xmlns="http://www.w3.org/2000/svg" xmlns:xlink="http://www.w3.org/1999/xlink" xml:space="preserve" xmlns:serif="http://www.serif.com/" style="fill-rule:evenodd;clip-rule:evenodd;stroke-linejoin:round;stroke-miterlimit:2;"><g id="Simple-Logo" serif:id="Simple Logo"><text x="-4.319px" y="81.565px" style="font-family:'AppleSDGothicNeo-Bold', 'Apple SD Gothic Neo';font-weight:700;font-size:108.32px;fill:#fbfcfc;">G<tspan x="57.552px 121.488px 175.379px 225.326px 275.273px 299.965px 327.38px 380.988px " y="81.565px 81.565px 81.565px 81.565px 81.565px 81.565px 81.565px 81.565px ">UESS IT!</tspan></text><path d="M354.264,112.045c-130.252,-35.38 -332.902,19.184 -332.902,19.184l-0.138,-0.062c0,0 151.448,-66.813 333.021,-30.599c1.85,-0.15 3.984,0.143 6.124,0.934c5.171,1.913 8.426,6.016 7.265,9.157c-1.162,3.141 -6.304,4.139 -11.475,2.226c-0.665,-0.246 -1.298,-0.528 -1.895,-0.84Z" style="fill:#fbfcfc;"/></g></svg>